{
  "accessors": [
    {
      "bufferView": 2,
      "componentType": 5126,
      "count": 65532,
      "max": [
        5.73065710067749,
        0.6677129864692688,
        -1.0616159439086914
      ],
      "min": [
        -1.4178179502487183,
        -1.656141996383667,
        -6.526501178741455
      ],
      "type": "VEC3"
    },
    {
      "bufferView": 2,
      "byteOffset": 786384,
      "componentType": 5126,
      "count": 65532,
      "max": [
        0.9999245405197144,
        0.9992372393608093,
        0.9999784827232361
      ],
      "min": [
        -0.9999962449073792,
        -1.0,
        -0.9999802112579346
      ],
      "type": "VEC3"
    },
    {
      "bufferView": 1,
      "componentType": 5126,
      "count": 65532,
      "max": [
        0.9996610283851624,
        0.9992979764938354
      ],
      "min": [
        0.0004970000009052455,
        0.0
      ],
      "type": "VEC2"
    },
    {
      "bufferView": 0,
      "componentType": 5125,
      "count": 334647,
      "type": "SCALAR"
    },
    {
      "bufferView": 2,
      "byteOffset": 1572768,
      "componentType": 5126,
      "count": 65532,
      "max": [
        3.0277509689331055,
        0.6573010087013245,
        -1.0824450254440308
      ],
      "min": [
        -4.012444019317627,
        -1.638537049293518,
        -6.525865077972412
      ],
      "type": "VEC3"
    },
    {
      "bufferView": 2,
      "byteOffset": 2359152,
      "componentType": 5126,
      "count": 65532,
      "max": [
        0.9999168515205383,
        0.9996278882026672,
        0.9999998807907104
      ],
      "min": [
        -0.9999951124191284,
        -0.9999998807907104,
        -0.9999978542327881
      ],
      "type": "VEC3"
    },
    {
      "bufferView": 1,
      "byteOffset": 524256,
      "componentType": 5126,
      "count": 65532,
      "max": [
        1.0,
        0.9997779726982117
      ],
      "min": [
        0.0006300000241026282,
        0.0001320000010309741
      ],
      "type": "VEC2"
    },
    {
      "bufferView": 0,
      "byteOffset": 1338588,
      "componentType": 5125,
      "count": 328350,
      "type": "SCALAR"
    },
    {
      "bufferView": 2,
      "byteOffset": 3145536,
      "componentType": 5126,
      "count": 65532,
      "max": [
        7.693455219268799,
        0.6894639730453491,
        -2.0402140617370605
      ],
      "min": [
        -8.09437084197998,
        -1.5771249532699585,
        -6.5262861251831055
      ],
      "type": "VEC3"
    },
    {
      "bufferView": 2,
      "byteOffset": 3931920,
      "componentType": 5126,
      "count": 65532,
      "max": [
        0.9999984502792358,
        0.9993934631347656,
        0.9999862313270569
      ],
      "min": [
        -0.999999463558197,
        -0.9999998807907104,
        -0.9999993443489075
      ],
      "type": "VEC3"
    },
    {
      "bufferView": 1,
      "byteOffset": 1048512,
      "componentType": 5126,
      "count": 65532,
      "max": [
        1.0,
        0.9993460178375244
      ],
      "min": [
        0.001053999993018806,
        9.100000170292333e-05
      ],
      "type": "VEC2"
    },
    {
      "bufferView": 0,
      "byteOffset": 2651988,
      "componentType": 5125,
      "count": 337683,
      "type": "SCALAR"
    },
    {
      "bufferView": 2,
      "byteOffset": 4718304,
      "componentType": 5126,
      "count": 65532,
      "max": [
        7.694461822509766,
        0.6734870076179504,
        2.579210042953491
      ],
      "min": [
        2.3807730674743652,
        -1.084238052368164,
        -6.525970935821533
      ],
      "type": "VEC3"
    },
    {
      "bufferView": 2,
      "byteOffset": 5504688,
      "componentType": 5126,
      "count": 65532,
      "max": [
        0.9996650218963623,
        0.9993534684181213,
        0.9999967813491821
      ],
      "min": [
        -0.9999781250953674,
        -0.9999997615814209,
        -0.9999804496765137
      ],
      "type": "VEC3"
    },
    {
      "bufferView": 1,
      "byteOffset": 1572768,
      "componentType": 5126,
      "count": 65532,
      "max": [
        0.9997739791870117,
        0.9990580081939697
      ],
      "min": [
        3.5000000934815034e-05,
        0.0006890000076964498
      ],
      "type": "VEC2"
    },
    {
      "bufferView": 0,
      "byteOffset": 4002720,
      "componentType": 5125,
      "count": 346203,
      "type": "SCALAR"
    },
    {
      "bufferView": 2,
      "byteOffset": 6291072,
      "componentType": 5126,
      "count": 65532,
      "max": [
        5.213054180145264,
        0.5120159983634949,
        1.6887680292129517
      ],
      "min": [
        -0.20025399327278137,
        -1.6517289876937866,
        -4.2796149253845215
      ],
      "type": "VEC3"
    },
    {
      "bufferView": 2,
      "byteOffset": 7077456,
      "componentType": 5126,
      "count": 65532,
      "max": [
        0.999997615814209,
        0.9997641444206238,
        0.9999603629112244
      ],
      "min": [
        -0.9999986290931702,
        -0.9999992251396179,
        -0.9999984502792358
      ],
      "type": "VEC3"
    },
    {
      "bufferView": 1,
      "byteOffset": 2097024,
      "componentType": 5126,
      "count": 65532,
      "max": [
        0.9999009966850281,
        0.9992780089378357
      ],
      "min": [
        0.0004910000134259462,
        0.0005670000100508332
      ],
      "type": "VEC2"
    },
    {
      "bufferView": 0,
      "byteOffset": 5387532,
      "componentType": 5125,
      "count": 329532,
      "type": "SCALAR"
    },
    {
      "bufferView": 2,
      "byteOffset": 7863840,
      "componentType": 5126,
      "count": 65532,
      "max": [
        7.550034999847412,
        0.33035001158714294,
        6.091681957244873
      ],
      "min": [
        -0.19832199811935425,
        -1.7853059768676758,
        -1.1042920351028442
      ],
      "type": "VEC3"
    },
    {
      "bufferView": 2,
      "byteOffset": 8650224,
      "componentType": 5126,
      "count": 65532,
      "max": [
        0.9998322129249573,
        0.9994325041770935,
        0.9999768733978271
      ],
      "min": [
        -0.9999759793281555,
        -0.9999992251396179,
        -0.999993622303009
      ],
      "type": "VEC3"
    },
    {
      "bufferView": 1,
      "byteOffset": 2621280,
      "componentType": 5126,
      "count": 65532,
      "max": [
        1.0,
        0.9989669919013977
      ],
      "min": [
        0.0016560000367462635,
        0.0005920000257901847
      ],
      "type": "VEC2"
    },
    {
      "bufferView": 0,
      "byteOffset": 6705660,
      "componentType": 5125,
      "count": 338124,
      "type": "SCALAR"
    },
    {
      "bufferView": 2,
      "byteOffset": 9436608,
      "componentType": 5126,
      "count": 65532,
      "max": [
        7.1803131103515625,
        0.36657100915908813,
        6.091344833374023
      ],
      "min": [
        -1.6368130445480347,
        -1.7154910564422607,
        -1.3125250339508057
      ],
      "type": "VEC3"
    },
    {
      "bufferView": 2,
      "byteOffset": 10222992,
      "componentType": 5126,
      "count": 65532,
      "max": [
        0.9999211430549622,
        0.9999771118164063,
        0.9998356699943542
      ],
      "min": [
        -0.999900758266449,
        -1.0,
        -0.9999776482582092
      ],
      "type": "VEC3"
    },
    {
      "bufferView": 1,
      "byteOffset": 3145536,
      "componentType": 5126,
      "count": 65532,
      "max": [
        0.9989669919013977,
        0.999845027923584
      ],
      "min": [
        4.999999873689376e-05,
        7.500000356230885e-05
      ],
      "type": "VEC2"
    },
    {
      "bufferView": 0,
      "byteOffset": 8058156,
      "componentType": 5125,
      "count": 337494,
      "type": "SCALAR"
    },
    {
      "bufferView": 2,
      "byteOffset": 11009376,
      "componentType": 5126,
      "count": 65532,
      "max": [
        1.040024995803833,
        0.32600998878479004,
        6.090904235839844
      ],
      "min": [
        -6.913356781005859,
        -1.5108250379562378,
        0.15369099378585815
      ],
      "type": "VEC3"
    },
    {
      "bufferView": 2,
      "byteOffset": 11795760,
      "componentType": 5126,
      "count": 65532,
      "max": [
        0.9999901056289673,
        0.999833881855011,
        0.9999972581863403
      ],
      "min": [
        -0.9999794960021973,
        -0.9999983310699463,
        -0.9999978542327881
      ],
      "type": "VEC3"
    },
    {
      "bufferView": 1,
      "byteOffset": 3669792,
      "componentType": 5126,
      "count": 65532,
      "max": [
        0.9981030225753784,
        0.9991220235824585
      ],
      "min": [
        0.0006079999729990959,
        0.0005319999763742089
      ],
      "type": "VEC2"
    },
    {
      "bufferView": 0,
      "byteOffset": 9408132,
      "componentType": 5125,
      "count": 340170,
      "type": "SCALAR"
    },
    {
      "bufferView": 2,
      "byteOffset": 12582144,
      "componentType": 5126,
      "count": 65532,
      "max": [
        1.2997679710388184,
        0.3817389905452728,
        6.091742992401123
      ],
      "min": [
        -6.339808940887451,
        -1.7706660032272339,
        -2.4468801021575928
      ],
      "type": "VEC3"
    },
    {
      "bufferView": 2,
      "byteOffset": 13368528,
      "componentType": 5126,
      "count": 65532,
      "max": [
        0.9999341368675232,
        0.9999439716339111,
        0.9999842643737793
      ],
      "min": [
        -0.999999463558197,
        -0.9999998807907104,
        -0.9999861121177673
      ],
      "type": "VEC3"
    },
    {
      "bufferView": 1,
      "byteOffset": 4194048,
      "componentType": 5126,
      "count": 65532,
      "max": [
        0.999983012676239,
        0.9993910193443298
      ],
      "min": [
        0.0005169999785721302,
        3.7999998312443495e-05
      ],
      "type": "VEC2"
    },
    {
      "bufferView": 0,
      "byteOffset": 10768812,
      "componentType": 5125,
      "count": 339201,
      "type": "SCALAR"
    },
    {
      "bufferView": 2,
      "byteOffset": 14154912,
      "componentType": 5126,
      "count": 65532,
      "max": [
        -2.9472289085388184,
        0.5435799956321716,
        6.089785099029541
      ],
      "min": [
        -8.093093872070313,
        -1.775007963180542,
        -4.815027236938477
      ],
      "type": "VEC3"
    },
    {
      "bufferView": 2,
      "byteOffset": 14941296,
      "componentType": 5126,
      "count": 65532,
      "max": [
        0.9999984502792358,
        0.9995169043540955,
        0.9999831318855286
      ],
      "min": [
        -0.9999996423721313,
        -0.9999998807907104,
        -0.9999822378158569
      ],
      "type": "VEC3"
    },
    {
      "bufferView": 1,
      "byteOffset": 4718304,
      "componentType": 5126,
      "count": 65532,
      "max": [
        0.9983779788017273,
        0.9999240040779114
      ],
      "min": [
        0.0005050000036135316,
        0.0009749999735504389
      ],
      "type": "VEC2"
    },
    {
      "bufferView": 0,
      "byteOffset": 12125616,
      "componentType": 5125,
      "count": 336903,
      "type": "SCALAR"
    },
    {
      "bufferView": 2,
      "byteOffset": 15727680,
      "componentType": 5126,
      "count": 65532,
      "max": [
        4.702690124511719,
        0.6238930225372314,
        2.8378689289093018
      ],
      "min": [
        -8.093332290649414,
        -1.719162940979004,
        -6.525876998901367
      ],
      "type": "VEC3"
    },
    {
      "bufferView": 2,
      "byteOffset": 16514064,
      "componentType": 5126,
      "count": 65532,
      "max": [
        0.999999463558197,
        0.9998900294303894,
        0.9999794960021973
      ],
      "min": [
        -0.9999997615814209,
        -0.9999986290931702,
        -0.9999914765357971
      ],
      "type": "VEC3"
    },
    {
      "bufferView": 1,
      "byteOffset": 5242560,
      "componentType": 5126,
      "count": 65532,
      "max": [
        0.9999939799308777,
        0.9991269707679749
      ],
      "min": [
        0.0,
        0.000526999996509403
      ],
      "type": "VEC2"
    },
    {
      "bufferView": 0,
      "byteOffset": 13473228,
      "componentType": 5125,
      "count": 330072,
      "type": "SCALAR"
    },
    {
      "bufferView": 2,
      "byteOffset": 17300448,
      "componentType": 5126,
      "count": 65532,
      "max": [
        4.752748012542725,
        0.6213459968566895,
        6.091955184936523
      ],
      "min": [
        -8.090439796447754,
        -1.713884949684143,
        -6.525712013244629
      ],
      "type": "VEC3"
    },
    {
      "bufferView": 2,
      "byteOffset": 18086832,
      "componentType": 5126,
      "count": 65532,
      "max": [
        0.9999984502792358,
        0.9999812245368958,
        0.9999998807907104
      ],
      "min": [
        -0.9999984502792358,
        -1.0,
        -0.9999973773956299
      ],
      "type": "VEC3"
    },
    {
      "bufferView": 1,
      "byteOffset": 5766816,
      "componentType": 5126,
      "count": 65532,
      "max": [
        1.0,
        0.9999899864196777
      ],
      "min": [
        4.5000000682193786e-05,
        0.0
      ],
      "type": "VEC2"
    },
    {
      "bufferView": 0,
      "byteOffset": 14793516,
      "componentType": 5125,
      "count": 242469,
      "type": "SCALAR"
    },
    {
      "bufferView": 2,
      "byteOffset": 18873216,
      "componentType": 5126,
      "count": 65532,
      "max": [
        7.694386005401611,
        0.5207599997520447,
        6.087418079376221
      ],
      "min": [
        -8.094273567199707,
        -1.8293869495391846,
        -4.649779796600342
      ],
      "type": "VEC3"
    },
    {
      "bufferView": 2,
      "byteOffset": 19659600,
      "componentType": 5126,
      "count": 65532,
      "max": [
        0.999999463558197,
        0.9999940991401672,
        0.9999812245368958
      ],
      "min": [
        -0.9999993443489075,
        -0.9999992251396179,
        -0.9999964833259583
      ],
      "type": "VEC3"
    },
    {
      "bufferView": 1,
      "byteOffset": 6291072,
      "componentType": 5126,
      "count": 65532,
      "max": [
        1.0,
        1.0
      ],
      "min": [
        4.999999873689376e-05,
        0.00023600000713486224
      ],
      "type": "VEC2"
    },
    {
      "bufferView": 0,
      "byteOffset": 15763392,
      "componentType": 5125,
      "count": 254781,
      "type": "SCALAR"
    },
    {
      "bufferView": 2,
      "byteOffset": 20445984,
      "componentType": 5126,
      "count": 65532,
      "max": [
        7.694371223449707,
        0.6898750066757202,
        2.019813060760498
      ],
      "min": [
        -8.0947265625,
        -1.6423020362854004,
        -6.526356220245361
      ],
      "type": "VEC3"
    },
    {
      "bufferView": 2,
      "byteOffset": 21232368,
      "componentType": 5126,
      "count": 65532,
      "max": [
        0.9999980926513672,
        0.9999796152114868,
        0.9999998807907104
      ],
      "min": [
        -0.9999986290931702,
        -0.9999996423721313,
        -0.9999834895133972
      ],
      "type": "VEC3"
    },
    {
      "bufferView": 1,
      "byteOffset": 6815328,
      "componentType": 5126,
      "count": 65532,
      "max": [
        1.0,
        0.9994580149650574
      ],
      "min": [
        0.0,
        0.0
      ],
      "type": "VEC2"
    },
    {
      "bufferView": 0,
      "byteOffset": 16782516,
      "componentType": 5125,
      "count": 272166,
      "type": "SCALAR"
    },
    {
      "bufferView": 2,
      "byteOffset": 22018752,
      "componentType": 5126,
      "count": 8016,
      "max": [
        -0.2673960030078888,
        0.6496719717979431,
        -1.471809983253479
      ],
      "min": [
        -2.997056007385254,
        -1.6264749765396118,
        -6.525815010070801
      ],
      "type": "VEC3"
    },
    {
      "bufferView": 2,
      "byteOffset": 22114944,
      "componentType": 5126,
      "count": 8016,
      "max": [
        0.9999168515205383,
        0.9994508624076843,
        0.999986469745636
      ],
      "min": [
        -0.9990710020065308,
        -0.9999949932098389,
        -0.9999805688858032
      ],
      "type": "VEC3"
    },
    {
      "bufferView": 1,
      "byteOffset": 7339584,
      "componentType": 5126,
      "count": 8016,
      "max": [
        1.0,
        0.9997619986534119
      ],
      "min": [
        0.0,
        0.0
      ],
      "type": "VEC2"
    },
    {
      "bufferView": 0,
      "byteOffset": 17871180,
      "componentType": 5125,
      "count": 30438,
      "type": "SCALAR"
    }
  ],
  "asset": {
    "extras": {
      "author": "Arqueomodel3D (https://sketchfab.com/juanbrualla)",
      "license": "CC-BY-4.0 (http://creativecommons.org/licenses/by/4.0/)",
      "source": "https://sketchfab.com/3d-models/anphitheatre-pula-pula-arena-croatia-443dede130804faf8808b188e03e3e22",
      "title": "Anphitheatre Pula | Pula Arena | CROATIA"
    },
    "generator": "Sketchfab-14.41.0",
    "version": "2.0"
  },
  "bufferViews": [
    {
      "buffer": 0,
      "byteLength": 17992932,
      "name": "floatBufferViews",
      "target": 34963
    },
    {
      "buffer": 0,
      "byteLength": 7403712,
      "byteOffset": 17992932,
      "byteStride": 8,
      "name": "floatBufferViews",
      "target": 34962
    },
    {
      "buffer": 0,
      "byteLength": 22211136,
      "byteOffset": 25396644,
      "byteStride": 12,
      "name": "floatBufferViews",
      "target": 34962
    }
  ],
  "buffers": [
    {
      "byteLength": 47607780,
      "uri": "scene.bin"
    }
  ],
  "images": [
    {
      "uri": "textures/PULA_ARENA_1.1001_baseColor.jpeg"
    }
  ],
  "materials": [
    {
      "doubleSided": true,
      "name": "PULA_ARENA_1.1001",
      "pbrMetallicRoughness": {
        "baseColorTexture": {
          "index": 0
        },
        "metallicFactor": 0.0
      }
    }
  ],
  "meshes": [
    {
      "name": "Object_0",
      "primitives": [
        {
          "attributes": {
            "NORMAL": 1,
            "POSITION": 0,
            "TEXCOORD_0": 2
          },
          "indices": 3,
          "material": 0,
          "mode": 4
        }
      ]
    },
    {
      "name": "Object_1",
      "primitives": [
        {
          "attributes": {
            "NORMAL": 5,
            "POSITION": 4,
            "TEXCOORD_0": 6
          },
          "indices": 7,
          "material": 0,
          "mode": 4
        }
      ]
    },
    {
      "name": "Object_2",
      "primitives": [
        {
          "attributes": {
            "NORMAL": 9,
            "POSITION": 8,
            "TEXCOORD_0": 10
          },
          "indices": 11,
          "material": 0,
          "mode": 4
        }
      ]
    },
    {
      "name": "Object_3",
      "primitives": [
        {
          "attributes": {
            "NORMAL": 13,
            "POSITION": 12,
            "TEXCOORD_0": 14
          },
          "indices": 15,
          "material": 0,
          "mode": 4
        }
      ]
    },
    {
      "name": "Object_4",
      "primitives": [
        {
          "attributes": {
            "NORMAL": 17,
            "POSITION": 16,
            "TEXCOORD_0": 18
          },
          "indices": 19,
          "material": 0,
          "mode": 4
        }
      ]
    },
    {
      "name": "Object_5",
      "primitives": [
        {
          "attributes": {
            "NORMAL": 21,
            "POSITION": 20,
            "TEXCOORD_0": 22
          },
          "indices": 23,
          "material": 0,
          "mode": 4
        }
      ]
    },
    {
      "name": "Object_6",
      "primitives": [
        {
          "attributes": {
            "NORMAL": 25,
            "POSITION": 24,
            "TEXCOORD_0": 26
          },
          "indices": 27,
          "material": 0,
          "mode": 4
        }
      ]
    },
    {
      "name": "Object_7",
      "primitives": [
        {
          "attributes": {
            "NORMAL": 29,
            "POSITION": 28,
            "TEXCOORD_0": 30
          },
          "indices": 31,
          "material": 0,
          "mode": 4
        }
      ]
    },
    {
      "name": "Object_8",
      "primitives": [
        {
          "attributes": {
            "NORMAL": 33,
            "POSITION": 32,
            "TEXCOORD_0": 34
          },
          "indices": 35,
          "material": 0,
          "mode": 4
        }
      ]
    },
    {
      "name": "Object_9",
      "primitives": [
        {
          "attributes": {
            "NORMAL": 37,
            "POSITION": 36,
            "TEXCOORD_0": 38
          },
          "indices": 39,
          "material": 0,
          "mode": 4
        }
      ]
    },
    {
      "name": "Object_10",
      "primitives": [
        {
          "attributes": {
            "NORMAL": 41,
            "POSITION": 40,
            "TEXCOORD_0": 42
          },
          "indices": 43,
          "material": 0,
          "mode": 4
        }
      ]
    },
    {
      "name": "Object_11",
      "primitives": [
        {
          "attributes": {
            "NORMAL": 45,
            "POSITION": 44,
            "TEXCOORD_0": 46
          },
          "indices": 47,
          "material": 0,
          "mode": 4
        }
      ]
    },
    {
      "name": "Object_12",
      "primitives": [
        {
          "attributes": {
            "NORMAL": 49,
            "POSITION": 48,
            "TEXCOORD_0": 50
          },
          "indices": 51,
          "material": 0,
          "mode": 4
        }
      ]
    },
    {
      "name": "Object_13",
      "primitives": [
        {
          "attributes": {
            "NORMAL": 53,
            "POSITION": 52,
            "TEXCOORD_0": 54
          },
          "indices": 55,
          "material": 0,
          "mode": 4
        }
      ]
    },
    {
      "name": "Object_14",
      "primitives": [
        {
          "attributes": {
            "NORMAL": 57,
            "POSITION": 56,
            "TEXCOORD_0": 58
          },
          "indices": 59,
          "material": 0,
          "mode": 4
        }
      ]
    }
  ],
  "nodes": [
    {
      "children": [
        1
      ],
      "matrix": [
        1.0,
        0.0,
        0.0,
        0.0,
        0.0,
        -0.9993759989738464,
        -0.03532204777002357,
        0.0,
        0.0,
        0.03532204777002357,
        -0.9993759989738464,
        0.0,
        0.0,
        0.0,
        0.0,
        1.0
      ],
      "name": "Sketchfab_model"
    },
    {
      "children": [
        2,
        3,
        4,
        5,
        6,
        7,
        8,
        9,
        10,
        11,
        12,
        13,
        14,
        15,
        16
      ],
      "name": "PULA_ARENA_1.obj.cleaner.materialmerger.gles"
    },
    {
      "mesh": 0,
      "name": "Object_2"
    },
    {
      "mesh": 1,
      "name": "Object_3"
    },
    {
      "mesh": 2,
      "name": "Object_4"
    },
    {
      "mesh": 3,
      "name": "Object_5"
    },
    {
      "mesh": 4,
      "name": "Object_6"
    },
    {
      "mesh": 5,
      "name": "Object_7"
    },
    {
      "mesh": 6,
      "name": "Object_8"
    },
    {
      "mesh": 7,
      "name": "Object_9"
    },
    {
      "mesh": 8,
      "name": "Object_10"
    },
    {
      "mesh": 9,
      "name": "Object_11"
    },
    {
      "mesh": 10,
      "name": "Object_12"
    },
    {
      "mesh": 11,
      "name": "Object_13"
    },
    {
      "mesh": 12,
      "name": "Object_14"
    },
    {
      "mesh": 13,
      "name": "Object_15"
    },
    {
      "mesh": 14,
      "name": "Object_16"
    }
  ],
  "samplers": [
    {
      "magFilter": 9729,
      "minFilter": 9987,
      "wrapS": 10497,
      "wrapT": 10497
    }
  ],
  "scene": 0,
  "scenes": [
    {
      "name": "Sketchfab_Scene",
      "nodes": [
        0
      ]
    }
  ],
  "textures": [
    {
      "sampler": 0,
      "source": 0
    }
  ]
}
