{
  "accessors": [
    {
      "bufferView": 1,
      "componentType": 5126,
      "count": 16354,
      "max": [
        0.30271604657173157,
        0.024752767756581306,
        0.2973613739013672
      ],
      "min": [
        0.017612794414162636,
        0.0,
        0.012318342924118042
      ],
      "type": "VEC3"
    },
    {
      "bufferView": 1,
      "byteOffset": 196248,
      "componentType": 5126,
      "count": 16354,
      "max": [
        1.0,
        1.0,
        1.0
      ],
      "min": [
        -1.0,
        -1.0,
        -1.0
      ],
      "type": "VEC3"
    },
    {
      "bufferView": 0,
      "componentType": 5125,
      "count": 47832,
      "type": "SCALAR"
    }
  ],
  "asset": {
    "extras": {
      "author": "rodrivgm (https://sketchfab.com/rodrivgm)",
      "license": "CC-BY-4.0 (http://creativecommons.org/licenses/by/4.0/)",
      "source": "https://sketchfab.com/3d-models/labyrinth-abc354614e9e40acb5715e3a960c1885",
      "title": "Labyrinth"
    },
    "generator": "Sketchfab-12.68.0",
    "version": "2.0"
  },
  "bufferViews": [
    {
      "buffer": 0,
      "byteLength": 191328,
      "name": "floatBufferViews",
      "target": 34963
    },
    {
      "buffer": 0,
      "byteLength": 392496,
      "byteOffset": 191328,
      "byteStride": 12,
      "name": "floatBufferViews",
      "target": 34962
    }
  ],
  "buffers": [
    {
      "byteLength": 583824,
      "uri": "scene.bin"
    }
  ],
  "materials": [
    {
      "doubleSided": true,
      "name": "SVGMat.005",
      "pbrMetallicRoughness": {
        "baseColorFactor": [
          0.49203814104980514,
          0.21627962494540914,
          0.01856098038046786,
          1.0
        ],
        "metallicFactor": 0.0,
        "roughnessFactor": 0.5
      }
    }
  ],
  "meshes": [
    {
      "name": "Object_0",
      "primitives": [
        {
          "attributes": {
            "NORMAL": 1,
            "POSITION": 0
          },
          "indices": 2,
          "material": 0,
          "mode": 4
        }
      ]
    }
  ],
  "nodes": [
    {
      "children": [
        1
      ],
      "matrix": [
        1.0,
        0.0,
        0.0,
        0.0,
        0.0,
        2.220446049250313e-16,
        -1.0,
        0.0,
        0.0,
        1.0,
        2.220446049250313e-16,
        0.0,
        0.0,
        0.0,
        0.0,
        1.0
      ],
      "name": "Sketchfab_model"
    },
    {
      "children": [
        2
      ],
      "name": "root"
    },
    {
      "children": [
        3
      ],
      "matrix": [
        1.0,
        0.0,
        0.0,
        0.0,
        0.0,
        2.220446049250313e-16,
        1.0,
        0.0,
        0.0,
        -1.0,
        2.220446049250313e-16,
        0.0,
        0.0,
        0.0,
        0.0,
        1.0
      ],
      "name": "GLTF_SceneRootNode"
    },
    {
      "children": [
        4
      ],
      "matrix": [
        12.119857788085938,
        0.0,
        0.0,
        0.0,
        0.0,
        12.119857788085938,
        0.0,
        0.0,
        0.0,
        0.0,
        12.119857788085938,
        0.0,
        -1.3350563049316406,
        0.0,
        0.0,
        1.0
      ],
      "name": "lbr_1"
    },
    {
      "mesh": 0,
      "name": "Object_4"
    }
  ],
  "scene": 0,
  "scenes": [
    {
      "name": "Sketchfab_Scene",
      "nodes": [
        0
      ]
    }
  ]
}
